<svg width="33" height="32" viewBox="0 0 33 32" fill="none" xmlns="http://www.w3.org/2000/svg">
<path d="M31.3148 27.8022L19.4915 15.9673L31.2507 4.19697C32.2096 3.23658 32.2096 1.67976 31.2507 0.719897C30.2912 -0.239966 28.7364 -0.239966 27.7769 0.719897L16.0177 12.4902L4.25908 0.719897C3.2996 -0.239966 1.74477 -0.239966 0.785293 0.719897C-0.174188 1.68029 -0.174188 3.23711 0.785293 4.19697L12.5439 15.9673L0.719611 27.8022C-0.23987 28.7626 -0.23987 30.3189 0.719611 31.2793C1.19935 31.7595 1.8278 31.9993 2.45677 31.9993C3.08574 31.9993 3.71418 31.7595 4.19392 31.2793L16.0177 19.4443L27.841 31.2793C28.3207 31.7595 28.9492 31.9993 29.5781 31.9993C30.2071 31.9993 30.8356 31.7595 31.3153 31.2793C32.2737 30.3194 32.2737 28.7626 31.3148 27.8022Z" fill="white"/>
</svg>
