<svg width="26" height="45" viewBox="0 0 26 45" fill="none" xmlns="http://www.w3.org/2000/svg">
<path d="M17.562 22.0045L0.881052 5.33646C0.308056 4.74131 -0.00829009 3.94494 0.000143051 3.11884C0.00857619 2.29273 0.341111 1.50298 0.926138 0.919659C1.51116 0.336336 2.30188 0.00610659 3.12801 8.3843e-05C3.95413 -0.0059389 4.74958 0.312727 5.34305 0.887458L24.243 19.7735C24.8145 20.3465 25.143 21.1179 25.1602 21.927C25.1773 22.7361 24.8818 23.5207 24.335 24.1175L5.35705 43.1345C4.76358 43.7092 3.96813 44.0279 3.14201 44.0218C2.31588 44.0158 1.52516 43.6856 0.940138 43.1023C0.355111 42.5189 0.0225761 41.7292 0.014143 40.9031C0.00570985 40.077 0.322055 39.2806 0.895052 38.6855L17.562 22.0045Z" fill="white"/>
</svg>
