<svg width="26" height="45" viewBox="0 0 26 45" fill="none" xmlns="http://www.w3.org/2000/svg">
<path d="M7.64571 22.46L24.3267 5.79199C24.8997 5.19685 25.2161 4.40048 25.2076 3.57437C25.1992 2.74827 24.8667 1.95852 24.2816 1.37519C23.6966 0.791872 22.9059 0.461642 22.0798 0.45562C21.2536 0.449597 20.4582 0.768263 19.8647 1.34299L0.964714 20.229C0.393218 20.802 0.064717 21.5734 0.0475806 22.3825C0.0304442 23.1917 0.325992 23.9763 0.872714 24.573L19.8507 43.59C20.4442 44.1647 21.2396 44.4834 22.0658 44.4774C22.8919 44.4713 23.6826 44.1411 24.2676 43.5578C24.8527 42.9745 25.1852 42.1847 25.1936 41.3586C25.2021 40.5325 24.8857 39.7361 24.3127 39.141L7.64571 22.46Z" fill="white"/>
</svg>
