<svg width="38" height="37" viewBox="0 0 38 37" fill="none" xmlns="http://www.w3.org/2000/svg">
<path d="M18.7903 20.6174C20.8458 20.6174 22.8551 20.0346 24.5642 18.9426C26.2732 17.8507 27.6053 16.2986 28.3919 14.4828C29.1785 12.6669 29.3843 10.6688 28.9833 8.74108C28.5823 6.81337 27.5925 5.04265 26.139 3.65285C24.6856 2.26305 22.8338 1.31659 20.8178 0.933141C18.8018 0.549695 16.7122 0.746493 14.8132 1.49865C12.9142 2.2508 11.2911 3.52453 10.1491 5.15877C9.00715 6.793 8.39763 8.71433 8.39763 10.6798C8.39845 13.3152 9.49365 15.8424 11.4425 17.7059C13.3913 19.5694 16.0342 20.6166 18.7903 20.6174V20.6174ZM28.0282 22.8258H24.0518C22.4021 23.5533 20.607 23.93 18.7903 23.93C16.9736 23.93 15.1785 23.5533 13.5288 22.8258H9.55237C7.10233 22.8258 4.75262 23.7565 3.02018 25.413C1.28773 27.0696 0.314453 29.3165 0.314453 31.6592L0.314453 32.7634C0.314725 33.6419 0.679792 34.4843 1.3294 35.1054C1.97901 35.7266 2.85999 36.0757 3.77867 36.0759H33.8019C34.7206 36.0757 35.6016 35.7266 36.2512 35.1054C36.9008 34.4843 37.2659 33.6419 37.2661 32.7634V31.6592C37.2661 29.3165 36.2929 27.0696 34.5604 25.413C32.828 23.7565 30.4783 22.8258 28.0282 22.8258V22.8258Z" fill="black"/>
</svg>
