<svg width="24" height="16" viewBox="0 0 24 16" fill="none" xmlns="http://www.w3.org/2000/svg">
<path d="M11.7928 11.0225L20.652 1.49737C20.799 1.33141 20.9807 1.19834 21.1847 1.10714C21.3887 1.01594 21.6103 0.96875 21.8345 0.96875C22.0587 0.96875 22.2803 1.01594 22.4843 1.10714C22.6883 1.19834 22.8699 1.33141 23.0169 1.49737C23.3307 1.85058 23.5036 2.30318 23.5036 2.7716C23.5036 3.24002 23.3307 3.69262 23.0169 4.04583L12.9788 14.8373C12.8356 14.9981 12.6598 15.1278 12.4627 15.2183C12.2655 15.3089 12.0513 15.3581 11.8337 15.3631C11.6161 15.368 11.3998 15.3284 11.1986 15.2469C10.9974 15.1654 10.8157 15.0437 10.6651 14.8896L0.561577 4.05273C0.246765 3.69999 0.0732422 3.24721 0.0732422 2.7785C0.0732422 2.30979 0.246765 1.85701 0.561577 1.50428C0.7086 1.33832 0.890251 1.20524 1.09425 1.11405C1.29825 1.02285 1.51984 0.975654 1.74405 0.975654C1.96825 0.975654 2.18984 1.02285 2.39384 1.11405C2.59784 1.20524 2.77949 1.33832 2.92652 1.50428L11.7928 11.0225Z" fill="#9E9E9E"/>
</svg>
