<svg xmlns="http://www.w3.org/2000/svg" width="98.531" height="98.531" viewBox="0 0 98.531 98.531">
  <path id="Icon_awesome-user-circle" data-name="Icon awesome-user-circle" d="M49.265.562A49.265,49.265,0,1,0,98.531,49.828,49.257,49.257,0,0,0,49.265.562Zm0,19.07A17.481,17.481,0,1,1,31.784,37.114,17.481,17.481,0,0,1,49.265,19.633Zm0,68.336a38.067,38.067,0,0,1-29.1-13.548A22.148,22.148,0,0,1,39.73,62.541a4.861,4.861,0,0,1,1.41.219,26.3,26.3,0,0,0,8.125,1.371A26.2,26.2,0,0,0,57.39,62.76a4.86,4.86,0,0,1,1.41-.219A22.148,22.148,0,0,1,78.368,74.421,38.067,38.067,0,0,1,49.265,87.969Z" transform="translate(0 -0.563)" fill="#fff"/>
</svg>
