<svg width="33" height="36" viewBox="0 0 33 36" fill="none" xmlns="http://www.w3.org/2000/svg">
<path d="M29.1771 15.6373H27.4455V10.669C27.4175 7.90454 26.2495 5.26238 24.1952 3.31699C22.141 1.37161 19.3667 0.280273 16.4755 0.280273C13.5843 0.280273 10.81 1.37161 8.75573 3.31699C6.70149 5.26238 5.5334 7.90454 5.50544 10.669V15.6373H3.77281C2.85413 15.6376 1.97315 15.9867 1.32354 16.6078C0.673933 17.229 0.308866 18.0714 0.308594 18.9499L0.308594 32.2C0.308866 33.0785 0.673933 33.9209 1.32354 34.542C1.97315 35.1632 2.85413 35.5123 3.77281 35.5126H29.1771C30.0958 35.5123 30.9768 35.1632 31.6264 34.542C32.276 33.9209 32.641 33.0785 32.6413 32.2V18.9499C32.641 18.0714 32.276 17.229 31.6264 16.6078C30.9768 15.9867 30.0958 15.6376 29.1771 15.6373V15.6373ZM21.6718 15.6373H11.2791V10.669C11.2983 9.36329 11.8542 8.11727 12.8267 7.20041C13.7991 6.28355 15.1098 5.76954 16.4755 5.76954C17.8411 5.76954 19.1519 6.28355 20.1243 7.20041C21.0967 8.11727 21.6526 9.36329 21.6718 10.669V15.6373Z" fill="black"/>
</svg>
