<svg width="29" height="36" viewBox="0 0 29 36" fill="none" xmlns="http://www.w3.org/2000/svg">
<path d="M26.1738 0.844639L23.4024 3.93634L19.4763 0.844639C19.2769 0.700226 19.0336 0.62207 18.7835 0.62207C18.5333 0.62207 18.29 0.700226 18.0906 0.844639L14.1645 3.93634L10.2384 0.844639C10.039 0.700226 9.79568 0.62207 9.54554 0.62207C9.2954 0.62207 9.0521 0.700226 8.8527 0.844639L4.92658 3.93634L2.1552 0.844639C1.98375 0.72122 1.77969 0.645976 1.56596 0.627365C1.35224 0.608753 1.13733 0.647513 0.945374 0.739286C0.753423 0.831059 0.592046 0.972208 0.479383 1.14687C0.36672 1.32153 0.307236 1.52277 0.307619 1.72798V34.8534C0.307236 35.0586 0.36672 35.2598 0.479383 35.4345C0.592046 35.6091 0.753423 35.7503 0.945374 35.8421C1.13733 35.9338 1.35224 35.9726 1.56596 35.954C1.77969 35.9354 1.98375 35.8601 2.1552 35.7367L4.92658 32.645L8.8527 35.7367C9.0521 35.8811 9.2954 35.9593 9.54554 35.9593C9.79568 35.9593 10.039 35.8811 10.2384 35.7367L14.1645 32.645L18.0906 35.7367C18.29 35.8811 18.5333 35.9593 18.7835 35.9593C19.0336 35.9593 19.2769 35.8811 19.4763 35.7367L23.4024 32.645L26.1738 35.7367C26.3454 35.8598 26.5494 35.9347 26.7629 35.9531C26.9765 35.9715 27.1912 35.9327 27.3831 35.841C27.5749 35.7493 27.7362 35.6083 27.8489 35.4339C27.9617 35.2594 28.0214 35.0584 28.0214 34.8534V1.72798C28.0218 1.52277 27.9623 1.32153 27.8496 1.14687C27.737 0.972208 27.5756 0.831059 27.3836 0.739286C27.1917 0.647513 26.9768 0.608753 26.763 0.627365C26.5493 0.645976 26.3453 0.72122 26.1738 0.844639ZM23.4024 25.4683C23.4022 25.6146 23.3413 25.7549 23.2332 25.8584C23.1251 25.962 22.9786 26.0204 22.8256 26.0209H5.50446C5.35164 26.0204 5.20523 25.9621 5.09716 25.8588C4.9891 25.7555 4.92815 25.6154 4.92761 25.4693V24.3642C4.92815 24.2179 4.98924 24.0777 5.09753 23.9743C5.20581 23.871 5.35249 23.8128 5.50549 23.8126H22.8256C22.9787 23.8128 23.1256 23.8711 23.2339 23.9747C23.3422 24.0783 23.4032 24.2187 23.4034 24.3651L23.4024 25.4683ZM23.4024 18.8433C23.4022 18.9896 23.3413 19.1298 23.2332 19.2334C23.1251 19.3369 22.9786 19.3953 22.8256 19.3958H5.50446C5.35164 19.3953 5.20523 19.337 5.09716 19.2337C4.9891 19.1304 4.92815 18.9904 4.92761 18.8442V17.7391C4.92815 17.5928 4.98924 17.4526 5.09753 17.3493C5.20581 17.2459 5.35249 17.1877 5.50549 17.1875H22.8256C22.9787 17.1877 23.1256 17.246 23.2339 17.3496C23.3422 17.4532 23.4032 17.5936 23.4034 17.7401L23.4024 18.8433ZM23.4024 12.2182C23.4022 12.3645 23.3413 12.5047 23.2332 12.6083C23.1251 12.7118 22.9786 12.7702 22.8256 12.7708H5.50446C5.35164 12.7702 5.20523 12.712 5.09716 12.6086C4.9891 12.5053 4.92815 12.3653 4.92761 12.2192V11.114C4.92815 10.9677 4.98924 10.8275 5.09753 10.7242C5.20581 10.6208 5.35249 10.5627 5.50549 10.5624H22.8256C22.9787 10.5627 23.1256 10.621 23.2339 10.7245C23.3422 10.8281 23.4032 10.9685 23.4034 11.115L23.4024 12.2182Z" fill="black"/>
</svg>
