<svg width="21" height="16" viewBox="0 0 21 16" fill="none" xmlns="http://www.w3.org/2000/svg">
<path d="M9.858 4.085L3.37599 9.424V15.186C3.37599 15.3353 3.43531 15.4785 3.54089 15.5841C3.64648 15.6897 3.78968 15.749 3.93899 15.749L7.87899 15.739C8.0277 15.7385 8.17013 15.679 8.2751 15.5737C8.38006 15.4684 8.439 15.3257 8.43899 15.177V11.811C8.43886 11.7371 8.4533 11.6639 8.48149 11.5956C8.50967 11.5273 8.55105 11.4653 8.60325 11.413C8.65545 11.3607 8.71744 11.3192 8.7857 11.2909C8.85395 11.2626 8.92711 11.248 9.00099 11.248H11.251C11.325 11.2479 11.3982 11.2623 11.4666 11.2906C11.535 11.3188 11.5971 11.3603 11.6494 11.4126C11.7017 11.4649 11.7432 11.527 11.7714 11.5954C11.7997 11.6638 11.8141 11.737 11.814 11.811V15.173C11.8137 15.2471 11.8281 15.3204 11.8563 15.3889C11.8845 15.4574 11.9259 15.5196 11.9782 15.572C12.0306 15.6245 12.0927 15.666 12.1612 15.6943C12.2296 15.7226 12.3029 15.7371 12.377 15.737L16.315 15.748C16.4641 15.748 16.6072 15.6888 16.7127 15.5835C16.8183 15.4781 16.8777 15.3351 16.878 15.186V9.42L10.398 4.085C10.3216 4.02313 10.2263 3.98938 10.128 3.98938C10.0297 3.98938 9.93438 4.02313 9.858 4.085ZM20.101 7.714L17.157 5.291V0.422C17.157 0.310079 17.1125 0.202741 17.0334 0.123601C16.9543 0.0444606 16.8469 0 16.735 0H14.767C14.6551 0 14.5477 0.0444606 14.4686 0.123601C14.3895 0.202741 14.345 0.310079 14.345 0.422V2.973L11.201 0.385C10.8989 0.136227 10.5198 0.000195384 10.1285 0.000195384C9.73718 0.000195384 9.35805 0.136227 9.05599 0.385L0.153994 7.714C0.0682688 7.78579 0.0145379 7.88866 0.00460069 8.00004C-0.0053365 8.11141 0.0293325 8.22217 0.100994 8.308L1.00099 9.398C1.07221 9.48432 1.1748 9.53881 1.28619 9.5495C1.39758 9.56019 1.50866 9.5262 1.59499 9.455L9.858 2.644C9.93422 2.58264 10.0291 2.54919 10.127 2.54919C10.2249 2.54919 10.3198 2.58264 10.396 2.644L18.666 9.455C18.7522 9.52631 18.8632 9.56047 18.9746 9.54997C19.086 9.53947 19.1886 9.48517 19.26 9.399L20.16 8.309C20.196 8.26591 20.2231 8.21606 20.2396 8.16238C20.2561 8.1087 20.2617 8.05227 20.2561 7.99639C20.2505 7.94051 20.2338 7.88631 20.207 7.83696C20.1802 7.78761 20.1438 7.74411 20.1 7.709L20.101 7.714Z" fill="#9E9E9E"/>
</svg>
