<svg width="19" height="18" viewBox="0 0 36 30" fill="none" xmlns="http://www.w3.org/2000/svg">
<path d="M0.212 16.5471C0.35792 17.6665 0.906182 18.6946 1.75447 19.4395C2.60275 20.1844 3.69309 20.5952 4.822 20.5952C5.95091 20.5952 7.04125 20.1844 7.88953 19.4395C8.73782 18.6946 9.28608 17.6665 9.432 16.5471H0.212ZM25.331 25.9061C25.3313 26.0007 25.3129 26.0945 25.2769 26.182C25.2409 26.2695 25.188 26.3491 25.1212 26.4161C25.0544 26.4832 24.9751 26.5364 24.8877 26.5728C24.8003 26.6092 24.7066 26.628 24.612 26.6281H11.18C11.0834 26.6317 10.987 26.6158 10.8967 26.5813C10.8064 26.5468 10.724 26.4945 10.6543 26.4274C10.5847 26.3603 10.5293 26.2799 10.4915 26.1909C10.4537 26.102 10.4342 26.0063 10.4342 25.9096C10.4342 25.8129 10.4537 25.7172 10.4915 25.6283C10.5293 25.5393 10.5847 25.4589 10.6543 25.3918C10.724 25.3247 10.8064 25.2724 10.8967 25.2379C10.987 25.2034 11.0834 25.1875 11.18 25.1911H24.612C24.7062 25.1908 24.7996 25.2091 24.8868 25.245C24.9739 25.2809 25.0532 25.3335 25.1199 25.4C25.1867 25.4665 25.2397 25.5455 25.2759 25.6326C25.3122 25.7196 25.3309 25.8128 25.331 25.9071V25.9061ZM10.539 26.9961H25.253V29.0751H10.539V26.9961ZM26.568 16.5471C26.713 17.6668 27.2608 18.6954 28.1089 19.4408C28.957 20.1861 30.0474 20.5972 31.1765 20.5972C32.3056 20.5972 33.396 20.1861 34.2441 19.4408C35.0922 18.6954 35.64 17.6668 35.785 16.5471H26.568ZM35.531 15.1011L31.756 9.90109H33.774C33.996 9.87881 34.2018 9.77484 34.3515 9.60937C34.5012 9.4439 34.5841 9.22872 34.5841 9.00559C34.5841 8.78246 34.5012 8.56728 34.3515 8.40181C34.2018 8.23634 33.996 8.13238 33.774 8.11009H23.084C22.7667 7.23601 22.2248 6.46092 21.5128 5.86283C20.8007 5.26473 19.9437 4.86474 19.028 4.70309V1.89709C19.0288 1.77868 19.0061 1.66129 18.9611 1.55173C18.9162 1.44218 18.8499 1.34265 18.7662 1.25892C18.6824 1.17518 18.5829 1.10892 18.4734 1.06397C18.3638 1.01903 18.2464 0.996293 18.128 0.997091L18.044 1.00609L17.96 0.997091C17.842 0.996823 17.7251 1.01996 17.616 1.06515C17.507 1.11035 17.408 1.17671 17.3248 1.2604C17.2415 1.3441 17.1757 1.44346 17.1311 1.55274C17.0866 1.66202 17.0641 1.77906 17.065 1.89709V4.69709C16.1493 4.85861 15.2924 5.25857 14.5805 5.8567C13.8686 6.45482 13.3269 7.22998 13.01 8.10409H2.321C2.09898 8.12638 1.89316 8.23034 1.74347 8.39581C1.59378 8.56128 1.51089 8.77646 1.51089 8.99959C1.51089 9.22272 1.59378 9.4379 1.74347 9.60337C1.89316 9.76884 2.09898 9.87281 2.321 9.89509H4.247L0.472 15.0991H0V16.0591H9.647V15.0991H9.173L5.4 9.90109H14.16C14.1621 9.70234 14.1799 9.50407 14.213 9.30809C14.2456 9.21963 14.2632 9.12635 14.265 9.03209C14.427 8.34858 14.7739 7.72281 15.2677 7.2233C15.7616 6.72379 16.3834 6.3698 17.065 6.20009V16.0621H17.028C17.0238 17.77 16.6179 19.453 15.8431 20.9751C15.0683 22.4971 13.9464 23.8157 12.568 24.8241H23.526C22.1476 23.8154 21.0255 22.4969 20.2503 20.975C19.4751 19.453 19.0684 17.7701 19.063 16.0621H19.028V6.20009C19.7097 6.3697 20.3315 6.72366 20.8254 7.22318C21.3193 7.72271 21.6661 8.34853 21.828 9.03209C21.8316 9.12633 21.8498 9.21945 21.882 9.30809C21.9124 9.50431 21.9281 9.70253 21.929 9.90109H30.6L26.824 15.1011H26.353V16.0611H36V15.1011H35.531ZM4.439 15.1011H1.426L4.439 10.9501V15.1011ZM5.21 15.1011V10.9501L8.223 15.1011H5.21ZM30.793 15.1011H27.778L30.793 10.9501V15.1011ZM31.561 15.1011V10.9501L34.578 15.1011H31.561ZM5.718 6.85809C5.71701 7.03497 5.66363 7.2076 5.5646 7.35416C5.46557 7.50073 5.32533 7.61466 5.16159 7.68158C4.99785 7.74849 4.81795 7.76539 4.64461 7.73013C4.47128 7.69487 4.31228 7.60904 4.18769 7.48347C4.0631 7.35791 3.97851 7.19824 3.94461 7.02464C3.9107 6.85103 3.929 6.67127 3.99719 6.50806C4.06539 6.34484 4.18041 6.2055 4.32774 6.10761C4.47508 6.00973 4.64811 5.9577 4.825 5.95809C4.94279 5.95835 5.05936 5.98186 5.16805 6.02727C5.27673 6.07268 5.37538 6.13909 5.45834 6.2227C5.5413 6.30632 5.60694 6.40548 5.6515 6.51452C5.69606 6.62355 5.71866 6.74031 5.718 6.85809ZM32.073 6.81009C32.0661 7.00619 31.995 7.1946 31.8706 7.34632C31.7461 7.49804 31.5753 7.60467 31.3843 7.64978C31.1934 7.69489 30.9929 7.676 30.8137 7.59601C30.6345 7.51601 30.4866 7.37935 30.3927 7.20705C30.2988 7.03476 30.2641 6.83638 30.294 6.64245C30.3239 6.44851 30.4167 6.26977 30.5581 6.13374C30.6995 5.99771 30.8817 5.91192 31.0766 5.88958C31.2716 5.86723 31.4685 5.90958 31.637 6.01009C31.775 6.09199 31.8882 6.20967 31.9648 6.35068C32.0414 6.49168 32.0784 6.65076 32.072 6.81109L32.073 6.81009Z" fill="white"/>
</svg>
