<svg width="19" height="18" viewBox="0 0 28 31" fill="none" xmlns="http://www.w3.org/2000/svg">
<path d="M23.6409 11.6481H4.36086C3.33913 11.6486 2.35936 12.0545 1.63661 12.7767C0.913855 13.4989 0.507184 14.4784 0.505859 15.5001V17.4281C0.507236 18.102 0.686058 18.7636 1.02433 19.3464C1.36261 19.9292 1.84841 20.4127 2.43286 20.7481V27.0671H10.1449V30.9231H17.8569V27.0691H25.5689V20.7481C26.1536 20.4127 26.6397 19.9292 26.9782 19.3462C27.3167 18.7631 27.4956 18.1012 27.4969 17.4271V15.5001C27.4953 14.4783 27.0884 13.4988 26.3655 12.7767C25.6426 12.0545 24.6627 11.6486 23.6409 11.6481ZM8.21686 25.1481H4.36086V17.4281H2.43286V15.5001C2.43312 14.9889 2.63634 14.4986 2.99785 14.1371C3.35936 13.7756 3.8496 13.5724 4.36086 13.5721H6.82286C6.47643 14.1558 6.29209 14.8214 6.28886 15.5001V19.3561C6.29016 20.0302 6.46905 20.6921 6.80752 21.2752C7.14598 21.8582 7.63208 22.3417 8.21686 22.6771V25.1401V25.1481ZM17.8569 21.2921V17.4281H15.9289V28.9971H12.0729V17.4281H10.1449V21.2841C9.63352 21.2841 9.14313 21.081 8.78156 20.7194C8.41999 20.3578 8.21686 19.8674 8.21686 19.3561V15.5001C8.21712 14.9889 8.42034 14.4986 8.78185 14.1371C9.14336 13.7756 9.6336 13.5724 10.1449 13.5721H17.8569C18.11 13.5721 18.3608 13.622 18.5947 13.7189C18.8286 13.8158 19.0411 13.9578 19.2202 14.1368C19.3992 14.3158 19.5412 14.5284 19.6381 14.7623C19.735 14.9962 19.7849 15.2469 19.7849 15.5001V19.3561C19.785 19.6093 19.7352 19.8601 19.6384 20.0941C19.5415 20.3281 19.3995 20.5406 19.2205 20.7197C19.0414 20.8988 18.8288 21.0408 18.5948 21.1376C18.3609 21.2345 18.1101 21.2842 17.8569 21.2841V21.2921ZM25.5689 17.4361H23.6409V25.1481H19.7849V22.6781C20.3696 22.3427 20.8557 21.8592 21.1942 21.2762C21.5327 20.6931 21.7116 20.0312 21.7129 19.3571V15.5001C21.7093 14.8213 21.5246 14.1557 21.1779 13.5721H23.6409C23.894 13.5721 24.1448 13.622 24.3787 13.7189C24.6126 13.8158 24.8251 13.9578 25.0042 14.1368C25.1832 14.3158 25.3252 14.5284 25.4221 14.7623C25.519 14.9962 25.5689 15.2469 25.5689 15.5001V17.4281V17.4361ZM9.65286 9.63711C10.1891 10.2664 10.8555 10.7717 11.6061 11.1182C12.3567 11.4648 13.1736 11.6442 14.0004 11.6442C14.8271 11.6442 15.644 11.4648 16.3946 11.1182C17.1452 10.7717 17.8116 10.2664 18.3479 9.63711C18.7205 10.3154 19.2888 10.8657 19.9787 11.2162C20.6686 11.5668 21.4482 11.7013 22.2157 11.6023C22.9832 11.5034 23.7031 11.1754 24.2815 10.6613C24.8599 10.1472 25.27 9.47071 25.4584 8.72009C25.6467 7.96947 25.6045 7.17953 25.3373 6.45325C25.07 5.72697 24.5902 5.09804 23.9603 4.64847C23.3304 4.19889 22.5797 3.94952 21.806 3.93287C21.0323 3.91621 20.2715 4.13305 19.6229 4.55511C19.331 3.28253 18.6159 2.14662 17.5947 1.33312C16.5735 0.519623 15.3065 0.0766602 14.0009 0.0766602C12.6952 0.0766602 11.4282 0.519623 10.407 1.33312C9.38577 2.14662 8.67076 3.28253 8.37886 4.55511C7.72914 4.13058 6.96651 3.91182 6.19055 3.92741C5.41458 3.94299 4.66135 4.19218 4.0292 4.64245C3.39704 5.09273 2.91535 5.72315 2.64701 6.4514C2.37867 7.17966 2.33616 7.9719 2.52502 8.72469C2.71389 9.47748 3.12535 10.1558 3.70569 10.6712C4.28603 11.1865 5.00827 11.5149 5.77811 11.6134C6.54795 11.7119 7.32961 11.576 8.02103 11.2235C8.71245 10.8709 9.28149 10.3181 9.65386 9.63711H9.65286ZM21.7129 5.86011C22.0942 5.86011 22.4669 5.97318 22.784 6.18504C23.1011 6.39689 23.3482 6.698 23.4941 7.0503C23.64 7.40259 23.6782 7.79025 23.6038 8.16424C23.5294 8.53824 23.3458 8.88178 23.0762 9.15141C22.8065 9.42105 22.463 9.60467 22.089 9.67906C21.715 9.75346 21.3273 9.71527 20.975 9.56935C20.6227 9.42342 20.3216 9.17631 20.1098 8.85925C19.8979 8.54219 19.7849 8.16943 19.7849 7.78811C19.7846 7.53485 19.8343 7.28402 19.9311 7.04999C20.0279 6.81595 20.1699 6.60331 20.349 6.42422C20.5281 6.24514 20.7407 6.10313 20.9747 6.00633C21.2088 5.90954 21.4596 5.85985 21.7129 5.86011ZM14.0009 2.00411C14.7635 2.00411 15.509 2.23026 16.1431 2.65396C16.7773 3.07767 17.2715 3.67989 17.5633 4.38448C17.8552 5.08907 17.9316 5.86439 17.7828 6.61238C17.634 7.36037 17.2667 8.04744 16.7275 8.58671C16.1882 9.12598 15.5011 9.49323 14.7531 9.64202C14.0051 9.7908 13.2298 9.71444 12.5252 9.42259C11.8206 9.13074 11.2184 8.6365 10.7947 8.00239C10.371 7.36827 10.1449 6.62275 10.1449 5.86011C10.1454 4.8376 10.5518 3.85712 11.2748 3.13409C11.9979 2.41107 12.9783 2.00464 14.0009 2.00411ZM6.28886 9.71611C5.90754 9.71611 5.53478 9.60303 5.21772 9.39118C4.90066 9.17933 4.65355 8.87822 4.50762 8.52592C4.36169 8.17363 4.32351 7.78597 4.39791 7.41198C4.4723 7.03798 4.65592 6.69444 4.92556 6.42481C5.19519 6.15517 5.53873 5.97155 5.91273 5.89716C6.28672 5.82276 6.67438 5.86094 7.02667 6.00687C7.37897 6.1528 7.68008 6.39991 7.89193 6.71697C8.10378 7.03403 8.21686 7.40679 8.21686 7.78811C8.21686 8.29945 8.01373 8.78984 7.65216 9.15141C7.29059 9.51298 6.8002 9.71611 6.28886 9.71611Z" fill="white"/>
</svg>
