<svg width="19" height="18" viewBox="0 0 25 27" fill="none" xmlns="http://www.w3.org/2000/svg">
<path d="M13.867 20.1431H12.091L11.097 16.286C11.0603 16.1487 10.9977 15.8651 10.909 15.4351C10.8203 15.0051 10.7693 14.7164 10.756 14.569C10.736 14.7497 10.6857 15.04 10.605 15.44C10.5243 15.84 10.4623 16.1254 10.419 16.2961L9.42902 20.1431H7.66402L5.79102 12.8H7.32302L8.26202 16.808C8.42602 17.548 8.54501 18.1894 8.61901 18.732C8.63901 18.5414 8.68502 18.246 8.75702 17.846C8.82902 17.446 8.89568 17.1354 8.95702 16.914L10.027 12.801H11.501L12.571 16.914C12.6177 17.098 12.6764 17.3794 12.747 17.758C12.8177 18.1367 12.8713 18.4614 12.908 18.732C12.9413 18.4707 12.995 18.1451 13.069 17.7551C13.143 17.3651 13.2097 17.0494 13.269 16.808L14.203 12.8H15.735L13.867 20.1431Z" fill="white"/>
<path d="M19.2914 16.7141C18.2742 16.7141 17.2799 17.0157 16.4341 17.5809C15.5884 18.146 14.9292 18.9492 14.5399 19.889C14.1507 20.8287 14.0488 21.8628 14.2473 22.8605C14.4457 23.8581 14.9355 24.7745 15.6548 25.4938C16.374 26.213 17.2904 26.7028 18.2881 26.9013C19.2857 27.0997 20.3198 26.9979 21.2596 26.6086C22.1993 26.2194 23.0026 25.5602 23.5677 24.7144C24.1328 23.8686 24.4344 22.8743 24.4344 21.8571C24.4344 20.4931 23.8926 19.185 22.9281 18.2205C21.9636 17.256 20.6554 16.7141 19.2914 16.7141ZM21.6234 20.3541L21.5994 20.3921L19.8354 22.8431C19.7775 22.9348 19.6972 23.0104 19.6022 23.0627C19.5072 23.1151 19.4004 23.1425 19.2919 23.1425C19.1834 23.1425 19.0767 23.1151 18.9817 23.0627C18.8867 23.0104 18.8064 22.9348 18.7484 22.8431L16.9604 20.3541C16.9046 20.2563 16.8754 20.1456 16.8757 20.033C16.8761 19.9204 16.906 19.8099 16.9625 19.7125C17.019 19.6151 17.1001 19.5342 17.1977 19.478C17.2952 19.4218 17.4058 19.3922 17.5184 19.3921H18.4344V18.0001C18.4347 17.8297 18.5025 17.6663 18.6231 17.5457C18.7436 17.4252 18.907 17.3574 19.0774 17.3571H19.5064C19.6769 17.3574 19.8403 17.4252 19.9608 17.5457C20.0813 17.6663 20.1492 17.8297 20.1494 18.0001V19.3931H21.0654C21.178 19.3932 21.2887 19.4228 21.3862 19.479C21.4838 19.5352 21.5649 19.6161 21.6214 19.7135C21.6779 19.8109 21.7078 19.9214 21.7081 20.034C21.7085 20.1466 21.6793 20.2573 21.6234 20.3551V20.3541Z" fill="white"/>
<path d="M15.0051 26.561L14.9941 26.572H15.0051V26.561Z" fill="white"/>
<path d="M21.4348 16.072V16.061L21.4238 16.072H21.4348Z" fill="white"/>
<path d="M20.8059 9.05201L12.3829 0.628009C12.1843 0.42825 11.948 0.269884 11.6878 0.162084C11.4276 0.0542851 11.1485 -0.000803941 10.8669 8.8648e-06H2.14886C1.58066 0.000538405 1.03589 0.226488 0.634114 0.628264C0.232339 1.03004 0.00638892 1.57481 0.00585938 2.14301V24.429C0.00638892 24.9972 0.232339 25.542 0.634114 25.9438C1.03589 26.3455 1.58066 26.5715 2.14886 26.572H14.9949L14.1379 25.715H2.14886C1.80787 25.7147 1.48093 25.5792 1.23981 25.3381C0.998698 25.0969 0.863125 24.77 0.86286 24.429V2.14301C0.863125 1.80202 0.998698 1.47508 1.23981 1.23396C1.48093 0.992848 1.80787 0.857274 2.14886 0.857009H10.8679C11.0367 0.856474 11.204 0.88943 11.36 0.95397C11.516 1.01851 11.6577 1.11335 11.7769 1.23301L20.2009 9.65701C20.4404 9.89906 20.5754 10.2255 20.5769 10.566V15.2L21.4339 16.057V10.567C21.4345 10.2855 21.3794 10.0067 21.2716 9.74661C21.1638 9.48656 21.0055 9.25048 20.8059 9.05201Z" fill="white"/>
<path d="M21.4222 16.0721L21.4332 16.0611L20.5762 15.2041" fill="white"/>
</svg>
