<svg width="19" height="18" viewBox="0 0 23 27" fill="none" xmlns="http://www.w3.org/2000/svg">
<path d="M6.66528 19.427H6.11328V21.905H6.66528C6.78653 21.9097 6.90728 21.8873 7.01883 21.8395C7.13038 21.7918 7.22993 21.7199 7.31029 21.629C7.4756 21.4311 7.56086 21.1786 7.54929 20.921V20.4C7.56011 20.145 7.47482 19.8952 7.31029 19.7C7.22974 19.6095 7.13008 19.5381 7.01852 19.4909C6.90697 19.4437 6.78631 19.4219 6.66528 19.427Z" fill="white"/>
<path d="M3.67236 19.4272H2.94336V20.6191H3.67736C3.76355 20.6248 3.85 20.6129 3.93147 20.5842C4.01293 20.5555 4.08774 20.5106 4.15136 20.4522C4.25736 20.3358 4.31338 20.1824 4.30736 20.0252C4.31248 19.8665 4.25666 19.7119 4.15136 19.5931C4.08662 19.5349 4.01089 19.4903 3.92863 19.4618C3.84637 19.4333 3.75924 19.4215 3.67236 19.4272Z" fill="white"/>
<path d="M11.7182 20.6662L15.1332 17.6782H0.990234V23.6592H15.1382L11.7182 20.6662ZM4.55124 20.7862C4.30474 20.9896 3.99021 21.0918 3.67123 21.0722H2.94223V22.3582H2.37524V18.9782H3.67524C3.99498 18.9605 4.30953 19.0648 4.55524 19.2702C4.65586 19.3695 4.73575 19.4879 4.79028 19.6183C4.84481 19.7488 4.87289 19.8888 4.87289 20.0302C4.87289 20.1716 4.84481 20.3116 4.79028 20.4421C4.73575 20.5725 4.65586 20.6909 4.55524 20.7902L4.55124 20.7862ZM8.11724 20.9212C8.12376 21.1119 8.09169 21.302 8.02296 21.48C7.95422 21.6581 7.85023 21.8204 7.71724 21.9572C7.57867 22.0907 7.41464 22.1949 7.23493 22.2636C7.05522 22.3323 6.86351 22.3642 6.67123 22.3572H5.55024V18.9782H6.66924C6.86151 18.9712 7.05322 19.0031 7.23293 19.0718C7.41264 19.1405 7.57667 19.2447 7.71524 19.3782C7.84964 19.5141 7.95454 19.6762 8.02337 19.8545C8.09219 20.0327 8.12347 20.2233 8.11523 20.4142L8.11724 20.9212ZM11.0472 19.4272H9.44724V20.4632H10.8112V20.9162H9.44324V22.3582H8.88124V18.9782H11.0462L11.0472 19.4272Z" fill="white"/>
<path d="M22.03 6.75216H20.578V3.94116H17.294V6.75216H15.847C15.8039 6.74687 15.7603 6.75503 15.7221 6.77553C15.6838 6.79604 15.6529 6.82788 15.6335 6.86667C15.6141 6.90547 15.6072 6.94932 15.6137 6.99221C15.6203 7.03509 15.6399 7.0749 15.67 7.10616L18.762 10.6922C18.8099 10.7373 18.8732 10.7625 18.939 10.7625C19.0048 10.7625 19.0681 10.7373 19.116 10.6922L22.208 7.10616C22.2388 7.07506 22.2591 7.03507 22.2659 6.99183C22.2728 6.94859 22.2659 6.90429 22.2462 6.86518C22.2266 6.82606 22.1951 6.79411 22.1563 6.77383C22.1175 6.75355 22.0733 6.74598 22.03 6.75216Z" fill="white"/>
<path d="M20.577 2.15601H17.293V3.43101H20.577V2.15601Z" fill="white"/>
<path d="M18.5791 11.374V24.874C18.5794 25.0607 18.5428 25.2456 18.4715 25.4181C18.4001 25.5906 18.2955 25.7474 18.1635 25.8794C18.0315 26.0114 17.8747 26.1161 17.7022 26.1874C17.5297 26.2587 17.3448 26.2953 17.1581 26.295H3.48909C3.30266 26.2949 3.11808 26.258 2.94591 26.1865C2.77373 26.115 2.61733 26.0103 2.48565 25.8783C2.35396 25.7464 2.24957 25.5898 2.17844 25.4174C2.10731 25.2451 2.07083 25.0605 2.07109 24.874V24.114H1.37109V25.155C1.37109 25.6438 1.56527 26.1126 1.9109 26.4582C2.25653 26.8039 2.7253 26.998 3.21409 26.998H17.4341C17.9229 26.998 18.3917 26.8039 18.7373 26.4582C19.0829 26.1126 19.2771 25.6438 19.2771 25.155V11.379C19.1694 11.421 19.0547 11.442 18.9391 11.441C18.816 11.4405 18.6941 11.4178 18.5791 11.374Z" fill="white"/>
<path d="M2.07109 4.87301C2.07083 4.68633 2.1074 4.50143 2.17872 4.32891C2.25004 4.15638 2.3547 3.99963 2.48671 3.86762C2.61871 3.73562 2.77546 3.63096 2.94799 3.55964C3.12051 3.48832 3.30541 3.45175 3.49209 3.45201H16.6121V2.76001H3.21209C2.72365 2.76054 2.25538 2.95495 1.91019 3.30052C1.56499 3.64609 1.37109 4.11456 1.37109 4.60301V17.225H2.07109V4.87301Z" fill="white"/>
<path d="M15.1284 7.52209H4.15039V8.53209H16.0024L15.1644 7.5641C15.1497 7.55264 15.1375 7.53835 15.1284 7.52209Z" fill="white"/>
<path d="M16.4974 9.16211H4.15039V10.1721H16.4974V9.16211Z" fill="white"/>
<path d="M16.4974 10.8021H4.15039V11.8121H16.4974V10.8021Z" fill="white"/>
<path d="M16.4974 12.4471H4.15039V13.4571H16.4974V12.4471Z" fill="white"/>
<path d="M13.8214 14.0861H4.15039V15.0961H13.8214V14.0861Z" fill="white"/>
<path d="M20.5771 1.17721C20.5732 1.11724 20.5459 1.06123 20.5009 1.02134C20.456 0.981454 20.3971 0.960922 20.3371 0.964209H17.5261C17.4663 0.961194 17.4076 0.981849 17.3629 1.02171C17.3182 1.06157 17.291 1.11743 17.2871 1.17721V1.64521H20.5711V1.17721H20.5771Z" fill="white"/>
</svg>
