<?xml version="1.0" encoding="iso-8859-1"?>
<!-- Generator: Adobe Illustrator 20.0.0, SVG Export Plug-In . SVG Version: 6.00 Build 0)  -->
<svg version="1.1" id="Layer_1_1_" xmlns="http://www.w3.org/2000/svg" xmlns:xlink="http://www.w3.org/1999/xlink" x="0px" y="0px"
	 viewBox="0 0 64 64" style="enable-background:new 0 0 64 64;" xml:space="preserve">
<g id="Guide">
	<g>
	</g>
	<g>
	</g>
	<g>
	</g>
	<g>
	</g>
	<g>
	</g>
	<g>
	</g>
	<g>
	</g>
	<g>
	</g>
	<g>
	</g>
	<g>
	</g>
	<g>
	</g>
	<g>
	</g>
	<g>
	</g>
	<g>
	</g>
	<g>
	</g>
	<g>
	</g>
	<g>
	</g>
	<g>
	</g>
	<g>
	</g>
	<g>
	</g>
	<g>
	</g>
	<g>
	</g>
	<g>
	</g>
	<g>
	</g>
	<g>
	</g>
	<g>
	</g>
	<g>
	</g>
	<g>
	</g>
	<g>
	</g>
	<g>
	</g>
	<g>
	</g>
	<g>
	</g>
	<g>
	</g>
	<g>
	</g>
	<g>
	</g>
	<g>
	</g>
</g>
<path d="M59,6H49V5c0-2.757-2.243-5-5-5c-1.641,0-3.088,0.806-4,2.031C39.088,0.806,37.641,0,36,0s-3.088,0.806-4,2.031
	C31.088,0.806,29.641,0,28,0s-3.088,0.806-4,2.031C23.088,0.806,21.641,0,20,0c-2.757,0-5,2.243-5,5v1H5c-2.757,0-5,2.243-5,5v32
	c0,2.757,2.243,5,5,5h12v16h2V48h20v-0.051C39.329,47.982,39.662,48,40,48h2v-2h-2c-4.072,0-7.444-3.06-7.938-7H45
	c1.654,0,3,1.346,3,3v22h2V48h9c2.757,0,5-2.243,5-5V11C64,8.243,61.757,6,59,6z M44,2c1.654,0,3,1.346,3,3v4c0,1.654-1.346,3-3,3
	s-3-1.346-3-3V5C41,3.346,42.346,2,44,2z M36,2c1.654,0,3,1.346,3,3v4c0,1.654-1.346,3-3,3s-3-1.346-3-3V5C33,3.346,34.346,2,36,2z
	 M28,2c1.654,0,3,1.346,3,3v4c0,1.654-1.346,3-3,3s-3-1.346-3-3V5C25,3.346,26.346,2,28,2z M17,5c0-1.654,1.346-3,3-3s3,1.346,3,3v4
	c0,1.654-1.346,3-3,3s-3-1.346-3-3V5z M62,43c0,1.654-1.346,3-3,3h-9v-4c0-2.757-2.243-5-5-5H31c-0.552,0-1,0.447-1,1
	c0,3.273,1.588,6.175,4.026,8H5c-1.654,0-3-1.346-3-3V11c0-1.654,1.346-3,3-3h10v1c0,2.757,2.243,5,5,5c1.641,0,3.088-0.806,4-2.031
	C24.912,13.194,26.359,14,28,14s3.088-0.806,4-2.031C32.912,13.194,34.359,14,36,14s3.088-0.806,4-2.031
	C40.912,13.194,42.359,14,44,14c2.757,0,5-2.243,5-5V8h10c1.654,0,3,1.346,3,3V43z"/>
<path d="M24,17H6c-0.552,0-1,0.447-1,1v19c0,0.553,0.448,1,1,1h18c0.552,0,1-0.447,1-1V18C25,17.447,24.552,17,24,17z M23,19v13.43
	c-0.945-2.04-2.506-3.687-4.457-4.612C18.825,27.27,19,26.658,19,26v-1c0-2.206-1.794-4-4-4s-4,1.794-4,4v1
	c0,0.658,0.175,1.27,0.457,1.818C9.506,28.743,7.945,30.391,7,32.43V19H23z M17,26c0,0.597-0.268,1.127-0.684,1.494
	c-0.009,0.007-0.021,0.012-0.03,0.02C16.025,27.735,15.59,28,15,28s-1.025-0.265-1.286-0.486c-0.009-0.008-0.02-0.012-0.03-0.019
	C13.268,27.127,13,26.597,13,26v-1c0-1.103,0.897-2,2-2s2,0.897,2,2V26z M12.886,29.382c0.283,0.178,0.592,0.312,0.917,0.415
	c0.05,0.016,0.099,0.033,0.15,0.047c0.156,0.042,0.313,0.075,0.475,0.099c0.028,0.004,0.055,0.005,0.083,0.008
	C14.673,29.971,14.833,30,15,30s0.327-0.029,0.489-0.049c0.028-0.003,0.055-0.004,0.083-0.008c0.162-0.024,0.32-0.056,0.475-0.099
	c0.051-0.014,0.1-0.031,0.15-0.047c0.325-0.103,0.633-0.237,0.916-0.415c2.619,0.945,4.478,3.537,4.816,6.618H8.07
	C8.408,32.919,10.268,30.327,12.886,29.382z"/>
<rect x="7" y="40" width="9" height="2"/>
<rect x="18" y="40" width="4" height="2"/>
<rect x="29" y="17" width="11" height="2"/>
<rect x="43" y="17" width="11" height="2"/>
<rect x="29" y="22" width="5" height="2"/>
<rect x="37" y="22" width="4" height="2"/>
<rect x="29" y="27" width="5" height="2"/>
<rect x="29" y="32" width="2" height="2"/>
<rect x="33" y="32" width="2" height="2"/>
<rect x="37" y="32" width="2" height="2"/>
<rect x="41" y="32" width="9" height="2"/>
<rect x="52" y="32" width="6" height="2"/>
<path d="M58,22h-7c-0.552,0-1,0.447-1,1v5c0,0.553,0.448,1,1,1h7c0.552,0,1-0.447,1-1v-5C59,22.447,58.552,22,58,22z M57,27h-5v-3h5
	V27z"/>
</svg>
