<svg version="1.1" id="Layer_1" xmlns="http://www.w3.org/2000/svg" xmlns:xlink="http://www.w3.org/1999/xlink" x="0px" y="0px" viewBox="0 0 120 120" style="enable-background:new 0 0 120 120;" xml:space="preserve">
<style type="text/css">
	.st0{fill:#0AA1DD;}
</style>
<g>
<path class="st0" d="M102.2,59.5L74.7,34.9c-1-0.9-2.6-0.2-2.6,1.2v9.8c0,0.9-0.7,1.6-1.6,1.6H49.2c-0.9,0-1.6,0.7-1.6,1.6v21.9
		c0,0.9,0.7,1.6,1.6,1.6h21.3c0.9,0,1.6,0.7,1.6,1.6V84c0,1.3,1.6,2.1,2.6,1.2l27.5-23.3C102.9,61.2,102.9,60.1,102.2,59.5z" id="id_101" style="fill: rgb(204, 20, 20);"></path>
<path class="st0" d="M34,72.5h7.2c0.9,0,1.6-0.7,1.6-1.6V49c0-0.9-0.7-1.6-1.6-1.6H34c-0.9,0-1.6,0.7-1.6,1.6v21.9
		C32.5,71.8,33.2,72.5,34,72.5z" id="id_102" style="fill: rgb(224, 56, 56);"></path>
<path class="st0" d="M18.9,72.5h7.2c0.9,0,1.6-0.7,1.6-1.6V49c0-0.9-0.7-1.6-1.6-1.6h-7.2c-0.9,0-1.6,0.7-1.6,1.6v21.9
		C17.3,71.8,18,72.5,18.9,72.5z" id="id_103" style="fill: rgb(230, 101, 101);"></path>
</g>
</svg>