<svg width="50" height="50" viewBox="0 0 50 50" fill="none" xmlns="http://www.w3.org/2000/svg">
<path d="M24.9995 4.17357e-07C20.055 0.000100784 15.2216 1.4664 11.1104 4.21347C6.99929 6.96054 3.79505 10.865 1.90293 15.4331C0.0107979 20.0013 -0.484243 25.0279 0.480404 29.8774C1.44505 34.7269 3.82606 39.1814 7.32234 42.6777C10.8186 46.1739 15.2731 48.5549 20.1226 49.5196C24.9721 50.4842 29.9987 49.9892 34.5669 48.0971C39.135 46.2049 43.0395 43.0007 45.7865 38.8896C48.5336 34.7784 49.9999 29.945 50 25.0005C50.0006 21.7172 49.3544 18.466 48.0982 15.4325C46.842 12.399 45.0005 9.64277 42.6789 7.32114C40.3572 4.99951 37.601 3.15801 34.5675 1.90183C31.534 0.645648 28.2828 -0.000599543 24.9995 4.17357e-07V4.17357e-07ZM24.9995 9.67725C26.754 9.67725 28.4691 10.1975 29.9279 11.1722C31.3867 12.147 32.5237 13.5324 33.1951 15.1533C33.8665 16.7742 34.0422 18.5578 33.7 20.2786C33.3577 21.9994 32.5129 23.58 31.2724 24.8206C30.0318 26.0613 28.4512 26.9062 26.7304 27.2485C25.0097 27.5909 23.2261 27.4153 21.6051 26.7439C19.9841 26.0726 18.5987 24.9357 17.6239 23.4769C16.6491 22.0182 16.1287 20.3031 16.1286 18.5487C16.1286 16.196 17.0632 13.9396 18.7268 12.276C20.3904 10.6124 22.6468 9.67776 24.9995 9.67776V9.67725ZM24.9995 44.355C22.1859 44.3536 19.4066 43.7376 16.8559 42.5501C14.3052 41.3626 12.0447 39.6322 10.2324 37.4799C11.1815 35.6663 12.6079 34.1463 14.3576 33.0839C16.1073 32.0216 18.1139 31.4572 20.1609 31.4518C20.4035 31.4535 20.6446 31.4909 20.8764 31.563C22.2057 32.0101 23.5971 32.2449 24.9995 32.2587C26.402 32.2457 27.7935 32.0109 29.1226 31.563C29.3543 31.4909 29.5954 31.4535 29.8381 31.4518C31.8854 31.457 33.8924 32.0213 35.6424 33.0838C37.3924 34.1462 38.819 35.6665 39.7681 37.4805C37.9557 39.6329 35.6949 41.3634 33.144 42.5509C30.593 43.7384 27.8133 44.3543 24.9995 44.3555V44.355Z" fill="black"/>
</svg>
