<svg width="103" height="96" viewBox="0 0 103 96" fill="none" xmlns="http://www.w3.org/2000/svg">
<path d="M51.4262 0.486329C41.3104 0.48652 31.4218 3.2773 23.0109 8.50576C14.6 13.7342 8.04449 21.1655 4.17342 29.86C0.302365 38.5545 -0.710428 48.1216 1.26312 57.3515C3.23667 66.5814 8.10792 75.0597 15.2609 81.7141C22.4138 88.3685 31.5273 92.9002 41.4487 94.7362C51.3701 96.5722 61.654 95.63 70.9998 92.0288C80.3456 88.4275 88.3337 82.3289 93.9539 74.5042C99.5741 66.6796 102.574 57.4802 102.574 48.0694C102.575 41.8204 101.253 35.6324 98.6832 29.8588C96.1132 24.0852 92.3457 18.8393 87.596 14.4205C82.8462 10.0018 77.2072 6.49692 71.0011 4.10605C64.795 1.71518 58.1434 0.485187 51.4262 0.486329ZM51.4262 18.9049C55.0156 18.9049 58.5245 19.8951 61.509 21.7503C64.4935 23.6055 66.8197 26.2423 68.1934 29.3274C69.567 32.4124 69.9265 35.8072 69.2263 39.0823C68.5261 42.3574 66.7977 45.3658 64.2597 47.7271C61.7216 50.0884 58.4879 51.6965 54.9675 52.3481C51.447 52.9996 47.7979 52.6654 44.4817 51.3877C41.1654 50.1099 38.3309 47.946 36.3365 45.1696C34.3422 42.3932 33.2776 39.129 33.2774 35.7897C33.2774 31.3118 35.1895 27.0174 38.5931 23.851C41.9966 20.6847 46.6128 18.9059 51.4262 18.9059V18.9049ZM51.4262 84.9066C45.6699 84.9039 39.9838 83.7315 34.7653 81.4713C29.5469 79.2111 24.9222 75.9177 21.2146 71.8214C23.1563 68.3695 26.0744 65.4764 29.6541 63.4545C33.2338 61.4325 37.3391 60.3584 41.5269 60.3481C42.0234 60.3513 42.5167 60.4225 42.9908 60.5597C45.7103 61.4106 48.5571 61.8575 51.4262 61.8838C54.2954 61.8591 57.1424 61.4122 59.8616 60.5597C60.3357 60.4225 60.8289 60.3513 61.3254 60.3481C65.5139 60.358 69.6199 61.432 73.2002 63.4541C76.7805 65.4763 79.6991 68.3698 81.6409 71.8223C77.933 75.919 73.3077 79.2126 68.0887 81.4728C62.8697 83.733 57.183 84.9053 51.4262 84.9075V84.9066Z" fill="white"/>
</svg>
