<svg width="21" height="26" viewBox="0 0 21 26" fill="none" xmlns="http://www.w3.org/2000/svg">
<path d="M10.1382 25.3914C12.1132 25.3914 13.1922 23.9914 13.1922 22.0264H7.07422C7.07422 23.9914 8.15722 25.3914 10.1382 25.3914Z" fill="white"/>
<path d="M20.0503 18.801C19.0723 17.512 17.1503 16.757 17.1503 10.985C17.1503 5.061 14.5343 2.685 12.0963 2.109C11.8673 2.052 11.7023 1.976 11.7023 1.734V1.55C11.7023 1.13891 11.539 0.744666 11.2483 0.453985C10.9576 0.163303 10.5633 0 10.1523 0C9.74118 0 9.34693 0.163303 9.05625 0.453985C8.76557 0.744666 8.60226 1.13891 8.60226 1.55V1.734C8.60226 1.969 8.43726 2.051 8.20826 2.109C5.76426 2.687 3.15426 5.058 3.15426 10.985C3.15426 16.756 1.23026 17.506 0.254263 18.801C0.112895 18.9883 0.0266522 19.2114 0.00525088 19.4451C-0.0161505 19.6788 0.0281407 19.9138 0.133134 20.1237C0.238127 20.3336 0.399649 20.51 0.599499 20.633C0.79935 20.756 1.02959 20.8208 1.26426 20.82H19.0473C19.2812 20.8191 19.5103 20.7532 19.7089 20.6296C19.9075 20.506 20.0678 20.3295 20.1718 20.12C20.2759 19.9105 20.3197 19.6762 20.2982 19.4433C20.2767 19.2103 20.1909 18.9879 20.0503 18.801Z" fill="white"/>
</svg>
