<svg width="28" height="25" viewBox="0 0 28 25" fill="none" xmlns="http://www.w3.org/2000/svg">
<path d="M13.7545 5.49168L3.31548 14.7007C3.23228 14.76 3.14507 14.8134 3.05448 14.8607V23.6947C3.05448 23.8973 3.13497 24.0916 3.27825 24.2349C3.42153 24.3782 3.61585 24.4587 3.81848 24.4587H10.9475L9.16848 20.9797L14.1415 17.9227L11.2675 12.2277L18.3395 18.7617L13.3675 21.8187L15.2745 24.4577H23.6905C23.8931 24.4577 24.0874 24.3772 24.2307 24.2339C24.374 24.0906 24.4545 23.8963 24.4545 23.6937V14.8607C24.3675 14.8153 24.2837 14.7641 24.2035 14.7077L13.7545 5.49168ZM27.2545 11.2917L24.4545 8.81568V2.29368C24.4545 2.09106 24.374 1.89673 24.2307 1.75345C24.0874 1.61017 23.8931 1.52968 23.6905 1.52968H20.6335C20.4309 1.52968 20.2365 1.61017 20.0932 1.75345C19.95 1.89673 19.8695 2.09106 19.8695 2.29368V4.76268L15.0325 0.492681C14.6829 0.175625 14.2279 0 13.756 0C13.2841 0 12.829 0.175625 12.4795 0.492681L0.251478 11.2867C0.101188 11.4228 0.0110809 11.613 0.000955391 11.8155C-0.00917007 12.018 0.0615145 12.2163 0.197477 12.3667L1.21548 13.5007C1.28253 13.5755 1.36367 13.6363 1.45427 13.6798C1.54486 13.7232 1.64313 13.7483 1.74345 13.7537C1.84376 13.7591 1.94416 13.7446 2.03888 13.7112C2.13361 13.6777 2.2208 13.6259 2.29548 13.5587L13.2495 3.90068C13.3892 3.77771 13.5689 3.70987 13.755 3.70987C13.9411 3.70987 14.1208 3.77771 14.2605 3.90068L25.2145 13.5627C25.2895 13.63 25.3772 13.6818 25.4723 13.7151C25.5674 13.7484 25.6682 13.7626 25.7689 13.7568C25.8695 13.7511 25.968 13.7255 26.0587 13.6815C26.1495 13.6376 26.2306 13.5761 26.2975 13.5007L27.3195 12.3627C27.4535 12.2116 27.5222 12.0135 27.5105 11.8119C27.4989 11.6102 27.4079 11.4214 27.2575 11.2867L27.2545 11.2917Z" fill="white"/>
</svg>
