<svg width="26" height="26" viewBox="0 0 26 26" fill="none" xmlns="http://www.w3.org/2000/svg">
<path d="M17.2172 4.97992C14.5172 4.97992 12.2852 3.22692 8.88917 3.22692C7.71883 3.22249 6.55715 3.42773 5.45917 3.83292C5.64851 3.3387 5.6951 2.80121 5.59363 2.28178C5.49217 1.76235 5.24673 1.2819 4.88532 0.895267C4.52392 0.50863 4.06111 0.231374 3.5497 0.0951355C3.03828 -0.0411026 2.49888 -0.0308348 1.99302 0.124767C1.48716 0.280369 1.03524 0.575038 0.688809 0.975149C0.34238 1.37526 0.115403 1.8647 0.0337782 2.38761C-0.047847 2.91053 0.0191676 3.44585 0.227175 3.93251C0.435182 4.41917 0.775804 4.83755 1.21017 5.13992V24.6009C1.21017 24.7598 1.24147 24.9172 1.30228 25.064C1.36309 25.2108 1.45221 25.3442 1.56457 25.4565C1.67693 25.5689 1.81032 25.658 1.95712 25.7188C2.10393 25.7796 2.26127 25.8109 2.42017 25.8109H3.22617C3.38524 25.8112 3.5428 25.7801 3.68983 25.7194C3.83687 25.6587 3.97049 25.5696 4.08306 25.4572C4.19563 25.3448 4.28494 25.2114 4.34588 25.0644C4.40681 24.9175 4.43817 24.76 4.43817 24.6009V19.8399C6.26108 19.0669 8.2265 18.687 10.2062 18.7249C12.9062 18.7249 15.1382 20.4779 18.5342 20.4779C20.7581 20.4595 22.9192 19.7388 24.7092 18.4189C24.9251 18.271 25.1017 18.0726 25.2237 17.8411C25.3456 17.6095 25.4093 17.3517 25.4092 17.0899V4.83692C25.4092 4.56583 25.341 4.2991 25.2107 4.06137C25.0804 3.82365 24.8923 3.62259 24.6638 3.47678C24.4352 3.33097 24.1736 3.24511 23.9031 3.22713C23.6327 3.20915 23.362 3.25963 23.1162 3.37392C21.2856 4.31691 19.2771 4.8641 17.2212 4.97992H17.2172Z" fill="white"/>
</svg>
